<?xml version="1.0" encoding="UTF-8"?>
<svg xmlns="http://www.w3.org/2000/svg" xmlns:xlink="http://www.w3.org/1999/xlink" width="50pt" height="50pt" viewBox="0 0 50 50" version="1.1">
<g id="surface1">
<path style=" stroke:none;fill-rule:nonzero;fill:rgb(0%,0%,0%);fill-opacity:1;" d="M 7.683594 28.132812 C 7.683594 26.214844 8.285156 24.515625 9.484375 23.015625 C 10.683594 21.515625 12.199219 20.550781 14.050781 20.132812 C 14.566406 17.851562 15.75 15.984375 17.566406 14.515625 C 19.382812 13.050781 21.484375 12.316406 23.832031 12.316406 C 26.132812 12.316406 28.183594 13.035156 29.984375 14.449219 C 31.785156 15.867188 32.949219 17.699219 33.484375 19.933594 L 34.035156 19.933594 C 35.535156 19.933594 36.917969 20.300781 38.183594 21.015625 C 39.449219 21.734375 40.464844 22.734375 41.199219 24 C 41.933594 25.265625 42.316406 26.632812 42.316406 28.132812 C 42.316406 29.601562 41.964844 30.964844 41.265625 32.214844 C 40.566406 33.464844 39.601562 34.464844 38.382812 35.214844 C 37.167969 35.964844 35.816406 36.367188 34.367188 36.417969 L 15.683594 36.417969 C 13.449219 36.316406 11.566406 35.464844 10.015625 33.867188 C 8.464844 32.285156 7.683594 30.367188 7.683594 28.132812 Z M 10.535156 28.132812 C 10.535156 29.582031 11.035156 30.832031 12.035156 31.898438 C 13.035156 32.964844 14.25 33.535156 15.683594 33.617188 L 34.332031 33.617188 C 35.765625 33.550781 36.984375 32.964844 37.984375 31.898438 C 39 30.832031 39.5 29.566406 39.5 28.132812 C 39.5 26.667969 38.949219 25.417969 37.867188 24.351562 C 36.785156 23.285156 35.5 22.75 34 22.75 L 31.332031 22.75 C 31.148438 22.75 31.050781 22.648438 31.050781 22.449219 L 30.933594 21.5 C 30.75 19.699219 29.964844 18.183594 28.601562 16.964844 C 27.234375 15.75 25.648438 15.132812 23.832031 15.132812 C 22.015625 15.132812 20.417969 15.75 19.082031 16.964844 C 17.734375 18.183594 16.964844 19.699219 16.800781 21.5 L 16.667969 22.449219 C 16.667969 22.648438 16.550781 22.75 16.332031 22.75 L 15.449219 22.75 C 14.050781 22.917969 12.882812 23.515625 11.949219 24.535156 C 11.015625 25.550781 10.535156 26.75 10.535156 28.132812 Z M 10.535156 28.132812 "/>
</g>
</svg>
