<?xml version="1.0" encoding="UTF-8"?>
<svg xmlns="http://www.w3.org/2000/svg" xmlns:xlink="http://www.w3.org/1999/xlink" width="50pt" height="50pt" viewBox="0 0 50 50" version="1.1">
<g id="surface1">
<path style=" stroke:none;fill-rule:nonzero;fill:rgb(0%,0%,0%);fill-opacity:1;" d="M 2.601562 28.167969 C 2.601562 29.667969 2.964844 31.050781 3.699219 32.316406 C 4.433594 33.582031 5.433594 34.582031 6.699219 35.316406 C 7.964844 36.050781 9.332031 36.417969 10.816406 36.417969 L 28.867188 36.417969 C 30.351562 36.417969 31.734375 36.050781 33 35.316406 C 34.265625 34.582031 35.285156 33.582031 36.015625 32.316406 C 36.75 31.050781 37.132812 29.667969 37.132812 28.167969 C 37.132812 27.066406 36.898438 25.949219 36.433594 24.832031 C 37.699219 23.300781 38.332031 21.449219 38.332031 19.332031 C 38.332031 18.148438 38.101562 17.015625 37.648438 15.933594 C 37.199219 14.851562 36.566406 13.933594 35.785156 13.148438 C 35 12.367188 34.082031 11.734375 33 11.285156 C 31.917969 10.816406 30.785156 10.601562 29.601562 10.601562 C 27.132812 10.601562 24.984375 11.566406 23.132812 13.5 C 21.851562 12.765625 20.351562 12.398438 18.632812 12.398438 C 16.285156 12.398438 14.214844 13.132812 12.417969 14.582031 C 10.617188 16.035156 9.449219 17.898438 8.949219 20.167969 C 7.082031 20.601562 5.566406 21.550781 4.382812 23.050781 C 3.199219 24.550781 2.601562 26.25 2.601562 28.167969 Z M 5.449219 28.167969 C 5.449219 26.765625 5.917969 25.566406 6.851562 24.550781 C 7.785156 23.535156 8.949219 22.949219 10.351562 22.785156 L 11.183594 22.734375 C 11.382812 22.734375 11.5 22.632812 11.5 22.433594 L 11.617188 21.535156 C 11.851562 19.734375 12.632812 18.214844 13.964844 17.015625 C 15.300781 15.800781 16.867188 15.199219 18.648438 15.199219 C 20.484375 15.199219 22.082031 15.816406 23.433594 17.035156 C 24.800781 18.25 25.550781 19.75 25.714844 21.550781 L 25.832031 22.515625 C 25.867188 22.699219 25.984375 22.800781 26.183594 22.800781 L 28.867188 22.800781 C 30.332031 22.800781 31.601562 23.332031 32.667969 24.398438 C 33.734375 25.464844 34.265625 26.714844 34.265625 28.183594 C 34.265625 29.699219 33.734375 30.984375 32.683594 32.050781 C 31.632812 33.117188 30.351562 33.648438 28.882812 33.648438 L 10.816406 33.648438 C 9.351562 33.648438 8.101562 33.117188 7.035156 32.035156 C 5.984375 30.949219 5.449219 29.667969 5.449219 28.167969 Z M 16.617188 7.714844 C 16.617188 8.117188 16.75 8.464844 17.015625 8.765625 L 18.117188 9.832031 C 18.535156 10.148438 18.882812 10.285156 19.183594 10.25 C 19.535156 10.25 19.832031 10.101562 20.101562 9.816406 C 20.367188 9.535156 20.5 9.183594 20.5 8.785156 C 20.5 8.382812 20.351562 8.050781 20.066406 7.800781 L 19.082031 6.699219 C 18.785156 6.433594 18.449219 6.300781 18.066406 6.300781 C 17.667969 6.300781 17.316406 6.433594 17.035156 6.714844 C 16.75 6.984375 16.617188 7.316406 16.617188 7.714844 Z M 25.515625 15.101562 C 26.667969 13.984375 28.035156 13.433594 29.601562 13.433594 C 31.25 13.433594 32.648438 14 33.800781 15.148438 C 34.949219 16.300781 35.535156 17.683594 35.535156 19.332031 C 35.535156 20.367188 35.25 21.398438 34.683594 22.398438 C 33.066406 20.800781 31.132812 20 28.867188 20 L 28.332031 20 C 27.917969 18.183594 26.984375 16.550781 25.515625 15.101562 Z M 28.234375 6.300781 C 28.234375 6.734375 28.367188 7.066406 28.617188 7.332031 C 28.867188 7.601562 29.199219 7.714844 29.601562 7.714844 C 30.035156 7.714844 30.367188 7.582031 30.632812 7.332031 C 30.898438 7.066406 31.015625 6.734375 31.015625 6.300781 L 31.015625 2.882812 C 31.015625 2.484375 30.882812 2.167969 30.617188 1.898438 C 30.351562 1.632812 30.015625 1.515625 29.601562 1.515625 C 29.199219 1.515625 28.882812 1.648438 28.617188 1.898438 C 28.351562 2.148438 28.234375 2.484375 28.234375 2.882812 Z M 37.433594 10.117188 C 37.433594 10.550781 37.550781 10.882812 37.800781 11.148438 C 38.148438 11.417969 38.5 11.550781 38.832031 11.550781 C 39.132812 11.550781 39.464844 11.417969 39.816406 11.148438 L 42.199219 8.765625 C 42.464844 8.464844 42.601562 8.117188 42.601562 7.699219 C 42.601562 7.300781 42.464844 6.964844 42.199219 6.699219 C 41.933594 6.433594 41.601562 6.300781 41.214844 6.300781 C 40.816406 6.300781 40.5 6.433594 40.25 6.699219 L 37.800781 9.082031 C 37.550781 9.398438 37.433594 9.734375 37.433594 10.117188 Z M 38.75 29.851562 C 38.75 30.25 38.882812 30.601562 39.167969 30.898438 L 40.25 31.949219 C 40.5 32.214844 40.816406 32.351562 41.214844 32.351562 C 41.617188 32.351562 41.949219 32.214844 42.214844 31.933594 C 42.484375 31.648438 42.617188 31.316406 42.617188 30.898438 C 42.617188 30.535156 42.484375 30.199219 42.214844 29.933594 L 41.132812 28.851562 C 40.867188 28.582031 40.550781 28.449219 40.183594 28.449219 C 39.785156 28.449219 39.449219 28.582031 39.183594 28.851562 C 38.898438 29.117188 38.75 29.449219 38.75 29.851562 Z M 41.199219 19.332031 C 41.199219 19.714844 41.351562 20.035156 41.632812 20.300781 C 41.898438 20.566406 42.25 20.699219 42.648438 20.699219 L 46.050781 20.699219 C 46.433594 20.699219 46.75 20.566406 47.015625 20.316406 C 47.285156 20.066406 47.398438 19.734375 47.398438 19.332031 C 47.398438 18.933594 47.265625 18.601562 47.015625 18.332031 C 46.765625 18.066406 46.433594 17.917969 46.050781 17.917969 L 42.648438 17.917969 C 42.25 17.917969 41.917969 18.050781 41.632812 18.332031 C 41.332031 18.617188 41.199219 18.949219 41.199219 19.332031 Z M 41.199219 19.332031 "/>
</g>
</svg>
