<?xml version="1.0" encoding="UTF-8"?>
<svg xmlns="http://www.w3.org/2000/svg" xmlns:xlink="http://www.w3.org/1999/xlink" width="50pt" height="50pt" viewBox="0 0 50 50" version="1.1">
<g id="surface1">
<path style=" stroke:none;fill-rule:nonzero;fill:rgb(0%,0%,0%);fill-opacity:1;" d="M 7.285156 24.367188 C 7.285156 23.964844 7.417969 23.617188 7.699219 23.332031 C 7.984375 23.066406 8.332031 22.933594 8.699219 22.933594 L 12.101562 22.933594 C 12.484375 22.933594 12.800781 23.066406 13.066406 23.351562 C 13.316406 23.632812 13.449219 23.964844 13.449219 24.367188 C 13.449219 24.765625 13.332031 25.101562 13.082031 25.382812 C 12.832031 25.667969 12.5 25.800781 12.117188 25.800781 L 8.714844 25.800781 C 8.332031 25.800781 8 25.667969 7.714844 25.382812 C 7.433594 25.101562 7.285156 24.765625 7.285156 24.367188 Z M 12.050781 35.917969 C 12.050781 35.535156 12.183594 35.199219 12.433594 34.898438 L 14.882812 32.515625 C 15.132812 32.25 15.464844 32.132812 15.867188 32.132812 C 16.265625 32.132812 16.601562 32.265625 16.867188 32.515625 C 17.132812 32.765625 17.265625 33.082031 17.265625 33.464844 C 17.265625 33.867188 17.132812 34.234375 16.867188 34.535156 L 14.5 36.898438 C 13.816406 37.433594 13.132812 37.433594 12.449219 36.898438 C 12.183594 36.632812 12.050781 36.300781 12.050781 35.917969 Z M 12.050781 12.851562 C 12.050781 12.464844 12.183594 12.132812 12.433594 11.832031 C 12.765625 11.550781 13.117188 11.417969 13.5 11.417969 C 13.867188 11.417969 14.199219 11.550781 14.484375 11.816406 L 16.867188 14.265625 C 17.132812 14.515625 17.265625 14.851562 17.265625 15.25 C 17.265625 15.648438 17.132812 15.984375 16.867188 16.25 C 16.601562 16.515625 16.265625 16.648438 15.867188 16.648438 C 15.464844 16.648438 15.132812 16.515625 14.882812 16.25 L 12.449219 13.867188 C 12.183594 13.601562 12.050781 13.25 12.050781 12.851562 Z M 16.300781 24.367188 C 16.300781 22.816406 16.683594 21.367188 17.464844 20.035156 C 18.25 18.699219 19.300781 17.632812 20.648438 16.851562 C 22 16.066406 23.433594 15.683594 24.984375 15.683594 C 26.148438 15.683594 27.265625 15.917969 28.351562 16.382812 C 29.417969 16.851562 30.351562 17.464844 31.117188 18.25 C 31.898438 19.035156 32.515625 19.949219 32.964844 21.015625 C 33.417969 22.082031 33.648438 23.214844 33.648438 24.382812 C 33.648438 25.949219 33.265625 27.398438 32.484375 28.734375 C 31.699219 30.066406 30.648438 31.117188 29.316406 31.898438 C 27.984375 32.683594 26.535156 33.066406 24.964844 33.066406 C 23.398438 33.066406 21.949219 32.683594 20.617188 31.898438 C 19.285156 31.117188 18.234375 30.066406 17.449219 28.734375 C 16.699219 27.382812 16.300781 25.933594 16.300781 24.367188 Z M 19.132812 24.367188 C 19.132812 26 19.699219 27.382812 20.851562 28.535156 C 21.984375 29.683594 23.367188 30.265625 25 30.265625 C 26.632812 30.265625 28.015625 29.683594 29.167969 28.535156 C 30.316406 27.382812 30.898438 26 30.898438 24.367188 C 30.898438 22.765625 30.316406 21.398438 29.167969 20.25 C 28.015625 19.117188 26.632812 18.550781 25 18.550781 C 23.382812 18.550781 22 19.117188 20.867188 20.25 C 19.699219 21.398438 19.132812 22.765625 19.132812 24.367188 Z M 23.566406 37.332031 C 23.566406 36.933594 23.699219 36.601562 23.984375 36.332031 C 24.265625 36.066406 24.601562 35.933594 24.984375 35.933594 C 25.382812 35.933594 25.734375 36.066406 26 36.332031 C 26.265625 36.601562 26.398438 36.933594 26.398438 37.332031 L 26.398438 40.648438 C 26.398438 41.050781 26.265625 41.398438 25.984375 41.683594 C 25.699219 41.964844 25.367188 42.101562 24.984375 42.101562 C 24.601562 42.101562 24.25 41.964844 23.984375 41.683594 C 23.699219 41.398438 23.566406 41.050781 23.566406 40.648438 Z M 23.566406 11.5 L 23.566406 8.101562 C 23.566406 7.714844 23.699219 7.382812 23.984375 7.101562 C 24.265625 6.816406 24.601562 6.667969 25 6.667969 C 25.398438 6.667969 25.714844 6.800781 26 7.082031 C 26.285156 7.367188 26.417969 7.699219 26.417969 8.082031 L 26.417969 11.5 C 26.417969 11.882812 26.285156 12.199219 26 12.464844 C 25.714844 12.734375 25.382812 12.851562 25 12.851562 C 24.617188 12.851562 24.265625 12.714844 24 12.464844 C 23.734375 12.214844 23.566406 11.882812 23.566406 11.5 Z M 32.765625 33.464844 C 32.765625 33.082031 32.898438 32.765625 33.148438 32.535156 C 33.398438 32.265625 33.714844 32.148438 34.082031 32.148438 C 34.484375 32.148438 34.816406 32.285156 35.082031 32.535156 L 37.515625 34.917969 C 37.785156 35.199219 37.917969 35.550781 37.917969 35.933594 C 37.917969 36.316406 37.785156 36.648438 37.515625 36.917969 C 36.851562 37.433594 36.183594 37.433594 35.515625 36.917969 L 33.148438 34.550781 C 32.898438 34.25 32.765625 33.898438 32.765625 33.464844 Z M 32.765625 15.265625 C 32.765625 14.851562 32.898438 14.515625 33.148438 14.285156 L 35.515625 11.832031 C 35.800781 11.566406 36.132812 11.433594 36.5 11.433594 C 36.898438 11.433594 37.234375 11.566406 37.5 11.851562 C 37.785156 12.132812 37.917969 12.464844 37.917969 12.851562 C 37.917969 13.265625 37.785156 13.617188 37.515625 13.882812 L 35.082031 16.265625 C 34.785156 16.535156 34.449219 16.667969 34.082031 16.667969 C 33.699219 16.667969 33.398438 16.535156 33.148438 16.265625 C 32.898438 16 32.765625 15.667969 32.765625 15.265625 Z M 36.535156 24.367188 C 36.535156 23.964844 36.667969 23.632812 36.933594 23.332031 C 37.199219 23.066406 37.515625 22.933594 37.882812 22.933594 L 41.25 22.933594 C 41.632812 22.933594 41.964844 23.082031 42.25 23.367188 C 42.535156 23.648438 42.683594 23.984375 42.683594 24.367188 C 42.683594 24.75 42.535156 25.082031 42.25 25.367188 C 41.964844 25.648438 41.632812 25.785156 41.25 25.785156 L 37.882812 25.785156 C 37.5 25.785156 37.167969 25.648438 36.917969 25.367188 C 36.667969 25.082031 36.535156 24.765625 36.535156 24.367188 Z M 36.535156 24.367188 "/>
</g>
</svg>
