<?xml version="1.0" encoding="UTF-8"?>
<svg xmlns="http://www.w3.org/2000/svg" xmlns:xlink="http://www.w3.org/1999/xlink" width="50pt" height="50pt" viewBox="0 0 50 50" version="1.1">
<g id="surface1">
<path style=" stroke:none;fill-rule:nonzero;fill:rgb(0%,0%,0%);fill-opacity:1;" d="M 7.734375 24.417969 C 7.75 23.851562 8.035156 22.984375 8.566406 21.785156 C 9.101562 20.582031 9.832031 19.316406 10.785156 17.949219 C 13.882812 13.601562 18.265625 11.316406 23.917969 11.066406 L 23.917969 10.351562 C 23.917969 10 24.035156 9.734375 24.265625 9.515625 C 24.5 9.300781 24.765625 9.199219 25.066406 9.199219 C 25.382812 9.199219 25.648438 9.300781 25.898438 9.515625 C 26.132812 9.734375 26.265625 10.015625 26.265625 10.351562 L 26.265625 11.082031 C 27.898438 11.148438 29.433594 11.398438 30.851562 11.832031 C 32.265625 12.265625 33.5 12.816406 34.550781 13.5 C 35.601562 14.183594 36.5 14.882812 37.234375 15.617188 C 37.984375 16.332031 38.648438 17.117188 39.234375 17.964844 C 39.917969 18.949219 40.515625 20.015625 41 21.132812 C 41.484375 22.25 41.832031 23.148438 42.015625 23.816406 C 42.199219 24.484375 42.300781 24.816406 42.316406 24.832031 L 42.316406 25.148438 C 42.316406 25.449219 42.199219 25.683594 41.964844 25.882812 C 41.734375 26.082031 41.464844 26.167969 41.148438 26.167969 C 40.632812 26.167969 40.300781 26.015625 40.148438 25.734375 C 38.851562 24.265625 37.433594 23.550781 35.898438 23.550781 C 35.332031 23.582031 34.75 23.714844 34.183594 23.933594 C 33.617188 24.148438 33.148438 24.382812 32.816406 24.632812 C 32.464844 24.867188 32.148438 25.117188 31.851562 25.367188 C 31.550781 25.617188 31.398438 25.734375 31.382812 25.75 C 31.066406 26.035156 30.765625 26.183594 30.5 26.183594 C 30.117188 26.183594 29.832031 26.082031 29.632812 25.882812 C 28.417969 24.667969 27.316406 23.933594 26.285156 23.683594 L 26.285156 36.582031 L 26.265625 36.933594 L 26.199219 37.316406 L 26.101562 37.734375 L 25.949219 38.167969 L 25.734375 38.617188 L 25.449219 39.050781 L 25.101562 39.464844 C 24.25 40.449219 23.050781 40.933594 21.464844 40.933594 C 19.785156 40.933594 18.515625 40.449219 17.667969 39.464844 C 17.464844 39.265625 17.300781 39.050781 17.148438 38.832031 C 17 38.601562 16.882812 38.382812 16.800781 38.148438 C 16.714844 37.933594 16.648438 37.714844 16.601562 37.515625 C 16.550781 37.316406 16.515625 37.117188 16.5 36.917969 C 16.464844 36.667969 16.449219 36.5 16.449219 36.367188 C 16.449219 36.234375 16.449219 36.101562 16.449219 35.984375 C 16.449219 35.867188 16.464844 35.785156 16.464844 35.765625 C 16.464844 35.464844 16.601562 35.199219 16.851562 34.984375 C 17.117188 34.765625 17.417969 34.683594 17.765625 34.75 C 18.066406 34.75 18.300781 34.882812 18.5 35.132812 C 18.699219 35.382812 18.800781 35.699219 18.800781 36.066406 C 18.699219 36.75 18.832031 37.332031 19.214844 37.816406 C 19.566406 38.300781 20.300781 38.550781 21.417969 38.550781 C 22.285156 38.550781 22.917969 38.351562 23.300781 37.949219 C 23.515625 37.734375 23.683594 37.464844 23.785156 37.148438 C 23.882812 36.832031 23.933594 36.582031 23.917969 36.367188 L 23.898438 36.050781 L 23.898438 23.785156 C 22.683594 24.082031 21.601562 24.714844 20.683594 25.683594 C 20.617188 25.816406 20.484375 25.949219 20.300781 26.066406 C 20.117188 26.183594 19.949219 26.25 19.800781 26.25 C 19.5 26.25 19.167969 26.066406 18.800781 25.683594 C 17.464844 24.199219 16.050781 23.464844 14.550781 23.5 C 13.882812 23.515625 13.25 23.617188 12.683594 23.832031 C 12.101562 24.050781 11.667969 24.265625 11.367188 24.484375 C 11.082031 24.699219 10.765625 24.949219 10.464844 25.234375 C 10.167969 25.515625 9.984375 25.683594 9.933594 25.714844 C 9.582031 25.949219 9.300781 26.082031 9.082031 26.082031 C 8.867188 26.082031 8.582031 25.984375 8.285156 25.800781 C 8.015625 25.632812 7.851562 25.449219 7.785156 25.265625 C 7.734375 25.066406 7.714844 24.785156 7.734375 24.417969 Z M 11.214844 22.050781 C 12.351562 21.449219 13.417969 21.167969 14.417969 21.167969 L 14.550781 21.167969 C 16.464844 21.167969 18.214844 21.898438 19.800781 23.382812 C 20.433594 22.832031 21.199219 22.351562 22.117188 21.917969 C 23.015625 21.484375 24 21.234375 25.066406 21.167969 L 25.199219 21.167969 C 27.117188 21.167969 28.867188 21.898438 30.449219 23.382812 C 31.082031 22.832031 31.851562 22.351562 32.765625 21.917969 C 33.667969 21.484375 34.648438 21.234375 35.714844 21.167969 L 35.867188 21.167969 C 36.800781 21.167969 37.785156 21.417969 38.785156 21.898438 C 38.050781 20.464844 37.550781 19.550781 37.316406 19.132812 C 34.332031 15.234375 30.199219 13.285156 24.933594 13.285156 C 22.300781 13.285156 19.949219 13.785156 17.867188 14.785156 C 15.800781 15.785156 14.101562 17.234375 12.785156 19.132812 C 12.398438 19.699219 11.867188 20.683594 11.214844 22.050781 Z M 11.214844 22.050781 "/>
</g>
</svg>
