<?xml version="1.0" encoding="UTF-8"?>
<svg xmlns="http://www.w3.org/2000/svg" xmlns:xlink="http://www.w3.org/1999/xlink" width="50pt" height="50pt" viewBox="0 0 50 50" version="1.1">
<g id="surface1">
<path style=" stroke:none;fill-rule:nonzero;fill:rgb(0%,0%,0%);fill-opacity:1;" d="M 16.25 18.300781 C 16.25 17.464844 16.550781 16.75 17.132812 16.167969 C 17.734375 15.566406 18.433594 15.285156 19.265625 15.285156 C 20.082031 15.285156 20.800781 15.582031 21.382812 16.167969 C 21.964844 16.765625 22.265625 17.464844 22.265625 18.300781 C 22.265625 19.132812 21.964844 19.851562 21.382812 20.433594 C 20.800781 21.035156 20.082031 21.316406 19.265625 21.316406 C 18.433594 21.316406 17.714844 21.015625 17.132812 20.433594 C 16.550781 19.851562 16.25 19.132812 16.25 18.300781 Z M 17.714844 18.300781 C 17.714844 18.734375 17.867188 19.101562 18.167969 19.417969 C 18.484375 19.734375 18.851562 19.882812 19.285156 19.882812 C 19.714844 19.882812 20.082031 19.734375 20.398438 19.417969 C 20.714844 19.101562 20.867188 18.734375 20.867188 18.300781 C 20.867188 17.867188 20.714844 17.5 20.398438 17.183594 C 20.082031 16.867188 19.714844 16.714844 19.285156 16.714844 C 18.851562 16.714844 18.484375 16.867188 18.167969 17.183594 C 17.867188 17.484375 17.714844 17.867188 17.714844 18.300781 Z M 24.199219 25.667969 C 24.199219 26.949219 24.550781 28.082031 25.265625 29.082031 C 25.632812 29.601562 26.148438 30.015625 26.816406 30.332031 C 27.464844 30.632812 28.214844 30.800781 29.050781 30.800781 C 31.484375 30.800781 33.015625 29.867188 33.632812 28.015625 C 33.699219 27.785156 33.667969 27.550781 33.535156 27.332031 C 33.398438 27.117188 33.214844 27 32.984375 26.949219 C 32.75 26.882812 32.515625 26.917969 32.316406 27.066406 C 32.117188 27.199219 31.984375 27.382812 31.933594 27.632812 C 31.933594 27.648438 31.933594 27.667969 31.917969 27.714844 L 31.882812 27.832031 C 31.699219 28.148438 31.449219 28.398438 31.132812 28.582031 C 30.617188 28.898438 29.933594 29.050781 29.082031 29.050781 C 28.566406 29.050781 28.101562 28.964844 27.699219 28.785156 C 27.035156 28.5 26.566406 28 26.285156 27.300781 C 26.101562 26.851562 26 26.300781 26 25.683594 L 26 20.316406 C 26 20.066406 26.015625 19.816406 26.050781 19.566406 C 26.117188 18.933594 26.367188 18.351562 26.800781 17.832031 C 27.285156 17.25 28.050781 16.964844 29.101562 16.964844 C 29.964844 16.964844 30.648438 17.117188 31.148438 17.417969 C 31.484375 17.617188 31.734375 17.867188 31.898438 18.167969 C 31.917969 18.199219 31.917969 18.25 31.933594 18.300781 C 31.949219 18.351562 31.949219 18.382812 31.949219 18.398438 C 32.015625 18.632812 32.148438 18.800781 32.332031 18.898438 C 32.535156 19.015625 32.75 19.035156 33 18.984375 C 33.234375 18.933594 33.417969 18.800781 33.550781 18.601562 C 33.683594 18.398438 33.714844 18.183594 33.648438 17.933594 L 33.648438 17.917969 L 33.515625 17.535156 C 33.433594 17.351562 33.285156 17.101562 33.050781 16.816406 C 32.832031 16.515625 32.566406 16.285156 32.300781 16.082031 C 31.949219 15.832031 31.5 15.632812 30.933594 15.449219 C 30.367188 15.285156 29.75 15.199219 29.082031 15.199219 C 28.234375 15.199219 27.5 15.351562 26.832031 15.648438 C 26.183594 15.949219 25.667969 16.351562 25.316406 16.867188 C 24.601562 17.851562 24.234375 19 24.234375 20.316406 L 24.234375 25.667969 Z M 24.199219 25.667969 "/>
</g>
</svg>
