<?xml version="1.0" encoding="UTF-8"?>
<svg xmlns="http://www.w3.org/2000/svg" xmlns:xlink="http://www.w3.org/1999/xlink" width="50pt" height="50pt" viewBox="0 0 50 50" version="1.1">
<g id="surface1">
<path style=" stroke:none;fill-rule:nonzero;fill:rgb(0%,0%,0%);fill-opacity:1;" d="M 5.148438 22.382812 C 5.148438 22.832031 5.300781 23.199219 5.617188 23.5 C 5.933594 23.800781 6.332031 23.933594 6.816406 23.933594 L 9.632812 23.933594 C 10.082031 23.933594 10.464844 23.785156 10.785156 23.484375 C 11.101562 23.183594 11.265625 22.816406 11.265625 22.382812 C 11.265625 21.898438 11.117188 21.5 10.800781 21.199219 C 10.484375 20.898438 10.101562 20.734375 9.648438 20.734375 L 6.816406 20.734375 C 6.332031 20.734375 5.933594 20.882812 5.617188 21.199219 C 5.300781 21.484375 5.148438 21.882812 5.148438 22.382812 Z M 8.101562 32.683594 C 8.101562 34.300781 8.683594 35.699219 9.867188 36.882812 C 11.050781 38.066406 12.433594 38.648438 14.050781 38.648438 L 25.484375 38.648438 C 27.101562 38.648438 28.484375 38.066406 29.632812 36.898438 C 30.785156 35.734375 31.367188 34.332031 31.367188 32.683594 C 31.367188 31.882812 31.25 31.199219 31.015625 30.632812 C 32.398438 29.75 33.5 28.566406 34.300781 27.101562 C 35.101562 25.632812 35.515625 24.050781 35.515625 22.367188 C 35.515625 21.015625 35.25 19.714844 34.714844 18.484375 C 34.183594 17.25 33.464844 16.183594 32.582031 15.300781 C 31.699219 14.417969 30.632812 13.699219 29.398438 13.167969 C 28.167969 12.632812 26.882812 12.367188 25.535156 12.367188 C 23.714844 12.367188 22.035156 12.816406 20.5 13.714844 C 18.964844 14.617188 17.75 15.832031 16.867188 17.351562 C 15.984375 18.882812 15.550781 20.550781 15.550781 22.367188 L 15.550781 22.933594 C 13.882812 23.882812 12.785156 25.265625 12.25 27.082031 C 10.984375 27.484375 9.984375 28.183594 9.234375 29.199219 C 8.484375 30.214844 8.101562 31.382812 8.101562 32.683594 Z M 10.699219 9.082031 C 10.699219 9.550781 10.851562 9.933594 11.132812 10.199219 L 13.816406 13.015625 C 14.601562 13.617188 15.382812 13.617188 16.167969 13.015625 C 16.484375 12.699219 16.632812 12.316406 16.632812 11.851562 C 16.632812 11.398438 16.484375 11.015625 16.167969 10.683594 L 13.417969 7.933594 C 13.066406 7.617188 12.667969 7.449219 12.25 7.449219 C 11.785156 7.449219 11.398438 7.601562 11.117188 7.917969 C 10.832031 8.234375 10.699219 8.617188 10.699219 9.082031 Z M 11.398438 32.683594 C 11.398438 31.984375 11.617188 31.382812 12.066406 30.882812 C 12.515625 30.382812 13.082031 30.101562 13.765625 30.035156 L 14.800781 29.898438 C 15.015625 29.898438 15.132812 29.765625 15.132812 29.515625 L 15.285156 28.582031 C 15.398438 27.617188 15.800781 26.816406 16.5 26.183594 C 17.199219 25.535156 18.015625 25.214844 18.964844 25.214844 C 19.933594 25.214844 20.785156 25.535156 21.484375 26.183594 C 22.199219 26.832031 22.617188 27.632812 22.734375 28.582031 L 22.867188 29.667969 C 22.964844 29.917969 23.101562 30.050781 23.265625 30.050781 L 25.464844 30.050781 C 26.183594 30.050781 26.800781 30.316406 27.332031 30.832031 C 27.867188 31.351562 28.117188 31.964844 28.117188 32.699219 C 28.117188 33.449219 27.851562 34.082031 27.332031 34.617188 C 26.816406 35.148438 26.183594 35.417969 25.464844 35.417969 L 14.050781 35.417969 C 13.300781 35.417969 12.667969 35.148438 12.167969 34.617188 C 11.648438 34.082031 11.398438 33.433594 11.398438 32.683594 Z M 18.765625 22.035156 C 18.882812 20.214844 19.582031 18.683594 20.882812 17.433594 C 22.167969 16.199219 23.734375 15.566406 25.535156 15.566406 C 27.382812 15.566406 28.964844 16.234375 30.265625 17.550781 C 31.566406 18.867188 32.214844 20.484375 32.214844 22.367188 C 32.214844 23.535156 31.933594 24.617188 31.367188 25.617188 C 30.800781 26.617188 30.035156 27.417969 29.066406 28.035156 C 28.082031 27.214844 26.949219 26.816406 25.683594 26.816406 C 25.199219 25.351562 24.332031 24.199219 23.117188 23.332031 C 21.898438 22.464844 20.515625 22.035156 18.984375 22.035156 Z M 23.917969 7.449219 C 23.917969 7.898438 24.082031 8.300781 24.398438 8.617188 C 24.714844 8.933594 25.101562 9.101562 25.550781 9.101562 C 26.015625 9.101562 26.398438 8.933594 26.714844 8.617188 C 27.035156 8.300781 27.199219 7.917969 27.199219 7.449219 L 27.199219 3.550781 C 27.199219 3.117188 27.035156 2.75 26.714844 2.449219 C 26.398438 2.148438 26.015625 2 25.550781 2 C 25.101562 2 24.714844 2.148438 24.398438 2.449219 C 24.082031 2.75 23.917969 3.117188 23.917969 3.550781 Z M 34.449219 32.832031 C 34.449219 33.285156 34.601562 33.667969 34.898438 34 L 37.632812 36.699219 C 38.332031 37.398438 39.117188 37.398438 39.984375 36.699219 C 40.285156 36.417969 40.417969 36.050781 40.417969 35.566406 C 40.417969 35.117188 40.265625 34.75 39.984375 34.449219 L 37.167969 31.667969 C 36.867188 31.382812 36.484375 31.25 36.035156 31.25 C 35.566406 31.25 35.199219 31.398438 34.898438 31.699219 C 34.601562 32 34.449219 32.382812 34.449219 32.832031 Z M 34.449219 11.816406 C 34.449219 12.285156 34.601562 12.683594 34.898438 13.015625 C 35.199219 13.316406 35.582031 13.464844 36.035156 13.464844 C 36.484375 13.464844 36.867188 13.316406 37.167969 13.015625 L 39.984375 10.199219 C 40.285156 9.917969 40.417969 9.550781 40.417969 9.082031 C 40.417969 8.617188 40.25 8.234375 39.933594 7.933594 C 39.617188 7.632812 39.234375 7.464844 38.765625 7.464844 C 38.332031 7.464844 37.949219 7.632812 37.632812 7.949219 L 34.898438 10.667969 C 34.601562 10.964844 34.449219 11.351562 34.449219 11.816406 Z M 38.75 22.382812 C 38.75 22.832031 38.898438 23.199219 39.214844 23.5 C 39.535156 23.800781 39.933594 23.933594 40.417969 23.933594 L 43.234375 23.933594 C 43.683594 23.933594 44.066406 23.785156 44.382812 23.484375 C 44.699219 23.183594 44.867188 22.816406 44.867188 22.382812 C 44.867188 21.898438 44.714844 21.5 44.398438 21.199219 C 44.082031 20.898438 43.699219 20.734375 43.25 20.734375 L 40.433594 20.734375 C 39.949219 20.734375 39.550781 20.882812 39.234375 21.199219 C 38.917969 21.484375 38.75 21.882812 38.75 22.382812 Z M 38.75 22.382812 "/>
</g>
</svg>
