<?xml version="1.0" encoding="UTF-8"?>
<svg xmlns="http://www.w3.org/2000/svg" xmlns:xlink="http://www.w3.org/1999/xlink" width="50pt" height="50pt" viewBox="0 0 50 50" version="1.1">
<g id="surface1">
<path style=" stroke:none;fill-rule:nonzero;fill:rgb(0%,0%,0%);fill-opacity:1;" d="M 16.117188 18.351562 C 16.117188 17.515625 16.417969 16.800781 17 16.214844 C 17.582031 15.632812 18.300781 15.332031 19.132812 15.332031 C 19.949219 15.332031 20.667969 15.632812 21.25 16.214844 C 21.832031 16.816406 22.132812 17.515625 22.132812 18.351562 C 22.132812 19.183594 21.832031 19.898438 21.25 20.5 C 20.667969 21.101562 19.949219 21.398438 19.132812 21.398438 C 18.316406 21.398438 17.601562 21.101562 17 20.5 C 16.417969 19.898438 16.117188 19.183594 16.117188 18.351562 Z M 17.582031 18.351562 C 17.582031 18.785156 17.734375 19.148438 18.035156 19.464844 C 18.351562 19.785156 18.714844 19.933594 19.148438 19.933594 C 19.582031 19.933594 19.949219 19.785156 20.265625 19.464844 C 20.582031 19.148438 20.734375 18.785156 20.734375 18.351562 C 20.734375 17.917969 20.582031 17.550781 20.265625 17.25 C 19.949219 16.949219 19.582031 16.785156 19.148438 16.785156 C 18.714844 16.785156 18.351562 16.933594 18.035156 17.234375 C 17.734375 17.535156 17.582031 17.898438 17.582031 18.351562 Z M 24.933594 29.832031 C 24.933594 30.066406 25.015625 30.285156 25.183594 30.449219 C 25.351562 30.617188 25.566406 30.699219 25.800781 30.699219 C 26.035156 30.699219 26.25 30.617188 26.417969 30.449219 C 26.582031 30.285156 26.667969 30.066406 26.667969 29.832031 L 26.667969 23.515625 L 31.433594 23.515625 C 31.667969 23.515625 31.882812 23.433594 32.050781 23.25 C 32.214844 23.066406 32.300781 22.867188 32.300781 22.617188 C 32.300781 22.367188 32.214844 22.167969 32.050781 21.984375 C 31.882812 21.816406 31.667969 21.734375 31.417969 21.734375 L 26.648438 21.734375 L 26.648438 17.183594 L 33.015625 17.183594 C 33.25 17.183594 33.449219 17.101562 33.617188 16.933594 C 33.785156 16.765625 33.851562 16.550781 33.851562 16.300781 C 33.851562 16.050781 33.765625 15.851562 33.617188 15.667969 C 33.464844 15.484375 33.265625 15.417969 33.015625 15.417969 L 25.066406 15.417969 C 24.949219 15.417969 24.898438 15.484375 24.898438 15.601562 L 24.898438 29.832031 Z M 24.933594 29.832031 "/>
</g>
</svg>
