<?xml version="1.0" encoding="UTF-8"?>
<svg xmlns="http://www.w3.org/2000/svg" xmlns:xlink="http://www.w3.org/1999/xlink" width="50pt" height="50pt" viewBox="0 0 50 50" version="1.1">
<g id="surface1">
<path style=" stroke:none;fill-rule:nonzero;fill:rgb(0%,0%,0%);fill-opacity:1;" d="M 13.265625 40.851562 L 13.917969 40.851562 L 25.382812 23.882812 C 25.535156 23.582031 25.449219 23.433594 25.132812 23.433594 L 20.398438 23.433594 L 25.382812 14.351562 C 25.535156 14.050781 25.417969 13.898438 25.050781 13.898438 L 18.699219 13.898438 C 18.515625 13.898438 18.367188 14 18.214844 14.199219 L 13.582031 26.535156 C 13.550781 26.832031 13.648438 26.984375 13.898438 26.984375 L 18.484375 26.984375 Z M 27.433594 30.300781 L 27.882812 30.300781 L 36.582031 17.515625 C 36.667969 17.382812 36.683594 17.265625 36.648438 17.183594 C 36.617188 17.101562 36.515625 17.066406 36.367188 17.066406 L 32.867188 17.066406 L 36.5 10.351562 C 36.699219 10.015625 36.601562 9.851562 36.199219 9.851562 L 31.632812 9.851562 C 31.417969 9.851562 31.25 9.949219 31.132812 10.167969 L 27.667969 19.300781 C 27.617188 19.449219 27.617188 19.566406 27.683594 19.648438 C 27.75 19.734375 27.851562 19.765625 28 19.765625 L 31.398438 19.765625 Z M 27.433594 30.300781 "/>
</g>
</svg>
