<?xml version="1.0" encoding="UTF-8"?>
<svg xmlns="http://www.w3.org/2000/svg" xmlns:xlink="http://www.w3.org/1999/xlink" width="50pt" height="50pt" viewBox="0 0 50 50" version="1.1">
<g id="surface1">
<path style=" stroke:none;fill-rule:nonzero;fill:rgb(0%,0%,0%);fill-opacity:1;" d="M 7.734375 28.183594 C 7.734375 26.265625 8.332031 24.566406 9.535156 23.066406 C 10.734375 21.566406 12.25 20.617188 14.082031 20.183594 C 14.601562 17.917969 15.785156 16.050781 17.601562 14.582031 C 19.417969 13.117188 21.5 12.398438 23.851562 12.398438 C 26.148438 12.398438 28.183594 13.117188 29.984375 14.535156 C 31.785156 15.949219 32.949219 17.785156 33.484375 20.015625 L 34.015625 20.015625 C 35.5 20.015625 36.882812 20.382812 38.148438 21.101562 C 39.417969 21.816406 40.433594 22.816406 41.167969 24.066406 C 41.898438 25.316406 42.285156 26.699219 42.285156 28.183594 C 42.285156 29.648438 41.933594 31 41.234375 32.25 C 40.535156 33.5 39.566406 34.5 38.351562 35.25 C 37.132812 36 35.800781 36.398438 34.351562 36.433594 C 34.132812 36.433594 34.015625 36.332031 34.015625 36.148438 L 34.015625 33.933594 C 34.015625 33.734375 34.132812 33.632812 34.351562 33.632812 C 35.765625 33.566406 36.984375 33 37.984375 31.933594 C 38.984375 30.867188 39.484375 29.617188 39.484375 28.167969 C 39.484375 26.714844 38.933594 25.464844 37.851562 24.398438 C 36.765625 23.332031 35.484375 22.800781 34 22.800781 L 31.316406 22.800781 C 31.117188 22.800781 31.015625 22.699219 31.015625 22.515625 L 30.882812 21.550781 C 30.699219 19.75 29.917969 18.234375 28.566406 17.035156 C 27.199219 15.816406 25.632812 15.214844 23.816406 15.214844 C 22 15.214844 20.398438 15.816406 19.066406 17.035156 C 17.714844 18.25 16.964844 19.75 16.800781 21.550781 L 16.683594 22.433594 C 16.683594 22.632812 16.566406 22.75 16.351562 22.75 L 15.464844 22.800781 C 14.082031 22.964844 12.917969 23.566406 11.964844 24.582031 C 11.015625 25.601562 10.550781 26.800781 10.550781 28.183594 C 10.550781 29.632812 11.050781 30.882812 12.050781 31.949219 C 13.050781 33.015625 14.265625 33.582031 15.683594 33.648438 C 15.867188 33.648438 15.964844 33.75 15.964844 33.949219 L 15.964844 36.167969 C 15.964844 36.351562 15.867188 36.449219 15.683594 36.449219 C 13.449219 36.351562 11.566406 35.5 10.015625 33.898438 C 8.464844 32.300781 7.734375 30.398438 7.734375 28.183594 Z M 16.648438 39.332031 C 16.648438 39.265625 16.667969 39.148438 16.714844 39 L 19.433594 29.382812 C 19.535156 29.066406 19.714844 28.816406 19.964844 28.648438 C 20.214844 28.484375 20.484375 28.398438 20.734375 28.398438 C 20.851562 28.398438 20.984375 28.417969 21.132812 28.449219 C 21.535156 28.515625 21.832031 28.734375 22.035156 29.066406 C 22.234375 29.398438 22.285156 29.765625 22.167969 30.183594 L 19.449219 39.734375 C 19.25 40.449219 18.785156 40.800781 18.082031 40.800781 C 18.015625 40.800781 17.964844 40.785156 17.898438 40.765625 C 17.800781 40.734375 17.75 40.714844 17.734375 40.714844 C 17.367188 40.617188 17.101562 40.433594 16.917969 40.167969 C 16.734375 39.882812 16.648438 39.617188 16.648438 39.332031 Z M 21.015625 44.015625 L 25.082031 29.398438 C 25.148438 29.082031 25.316406 28.832031 25.582031 28.667969 C 25.851562 28.5 26.117188 28.417969 26.398438 28.417969 C 26.550781 28.417969 26.699219 28.433594 26.851562 28.464844 C 27.214844 28.566406 27.484375 28.785156 27.667969 29.117188 C 27.851562 29.449219 27.882812 29.800781 27.785156 30.183594 L 23.734375 44.816406 C 23.667969 45.101562 23.515625 45.332031 23.25 45.535156 C 22.984375 45.734375 22.714844 45.832031 22.398438 45.832031 C 22.25 45.832031 22.101562 45.800781 21.984375 45.75 C 21.648438 45.667969 21.367188 45.449219 21.117188 45.101562 C 20.933594 44.800781 20.898438 44.449219 21.015625 44.015625 Z M 27.898438 39.367188 C 27.898438 39.300781 27.917969 39.183594 27.964844 38.984375 L 30.683594 29.367188 C 30.785156 29.050781 30.949219 28.800781 31.183594 28.632812 C 31.433594 28.464844 31.683594 28.382812 31.949219 28.382812 C 32.082031 28.382812 32.234375 28.398438 32.382812 28.433594 C 32.734375 28.535156 32.984375 28.699219 33.148438 28.949219 C 33.316406 29.199219 33.398438 29.464844 33.398438 29.734375 C 33.398438 29.785156 33.382812 29.867188 33.367188 29.964844 C 33.351562 30.066406 33.332031 30.132812 33.332031 30.167969 L 30.617188 39.714844 C 30.550781 40.035156 30.398438 40.300781 30.148438 40.484375 C 29.898438 40.667969 29.617188 40.765625 29.300781 40.765625 L 28.898438 40.683594 C 28.566406 40.582031 28.316406 40.417969 28.132812 40.148438 C 27.984375 39.898438 27.898438 39.632812 27.898438 39.367188 Z M 27.898438 39.367188 "/>
</g>
</svg>
