<?xml version="1.0" encoding="UTF-8"?>
<svg xmlns="http://www.w3.org/2000/svg" xmlns:xlink="http://www.w3.org/1999/xlink" width="50pt" height="50pt" viewBox="0 0 50 50" version="1.1">
<g id="surface1">
<path style=" stroke:none;fill-rule:nonzero;fill:rgb(0%,0%,0%);fill-opacity:1;" d="M 7.734375 28.25 C 7.734375 26.316406 8.316406 24.617188 9.5 23.117188 C 10.683594 21.617188 12.199219 20.648438 14.066406 20.183594 C 14.582031 17.917969 15.75 16.050781 17.566406 14.582031 C 19.382812 13.117188 21.464844 12.398438 23.816406 12.398438 C 26.117188 12.398438 28.148438 13.117188 29.949219 14.535156 C 31.75 15.949219 32.917969 17.785156 33.449219 20.015625 L 33.984375 20.015625 C 35.464844 20.015625 36.851562 20.382812 38.117188 21.117188 C 39.382812 21.851562 40.398438 22.851562 41.132812 24.117188 C 41.867188 25.382812 42.25 26.765625 42.25 28.25 C 42.25 30.449219 41.484375 32.367188 39.933594 33.949219 C 38.398438 35.550781 36.515625 36.382812 34.300781 36.449219 C 34.082031 36.449219 33.964844 36.351562 33.964844 36.167969 L 33.964844 33.949219 C 33.964844 33.75 34.082031 33.648438 34.300781 33.648438 C 35.714844 33.582031 36.933594 33.015625 37.933594 31.949219 C 38.933594 30.882812 39.433594 29.648438 39.433594 28.234375 C 39.433594 26.75 38.898438 25.484375 37.816406 24.398438 C 36.734375 23.316406 35.449219 22.785156 33.949219 22.785156 L 31.265625 22.785156 C 31.066406 22.785156 30.964844 22.683594 30.964844 22.5 L 30.832031 21.535156 C 30.648438 19.734375 29.867188 18.214844 28.515625 17 C 27.148438 15.785156 25.582031 15.167969 23.765625 15.167969 C 21.933594 15.167969 20.351562 15.785156 19 17.015625 C 17.648438 18.25 16.882812 19.765625 16.714844 21.601562 L 16.617188 22.433594 C 16.617188 22.632812 16.5 22.75 16.285156 22.75 L 15.398438 22.867188 C 14.015625 22.984375 12.851562 23.550781 11.898438 24.601562 C 10.949219 25.648438 10.484375 26.851562 10.484375 28.25 C 10.484375 29.667969 10.984375 30.898438 11.984375 31.964844 C 12.984375 33.035156 14.199219 33.582031 15.617188 33.667969 C 15.800781 33.667969 15.898438 33.765625 15.898438 33.964844 L 15.898438 36.183594 C 15.898438 36.367188 15.800781 36.464844 15.617188 36.464844 C 13.382812 36.398438 11.5 35.566406 9.949219 33.964844 C 8.5 32.367188 7.734375 30.449219 7.734375 28.25 Z M 18.332031 35.035156 C 18.332031 34.667969 18.464844 34.332031 18.734375 34.066406 C 19 33.800781 19.316406 33.667969 19.714844 33.667969 C 20.101562 33.667969 20.433594 33.800781 20.699219 34.066406 C 20.964844 34.332031 21.101562 34.667969 21.101562 35.035156 C 21.101562 35.433594 20.964844 35.765625 20.699219 36.035156 C 20.433594 36.316406 20.117188 36.449219 19.714844 36.449219 C 19.332031 36.449219 19 36.316406 18.734375 36.035156 C 18.464844 35.765625 18.332031 35.433594 18.332031 35.035156 Z M 18.332031 41.082031 C 18.332031 40.683594 18.464844 40.351562 18.734375 40.082031 C 19 39.832031 19.316406 39.699219 19.699219 39.699219 C 20.082031 39.699219 20.417969 39.832031 20.683594 40.082031 C 20.949219 40.351562 21.082031 40.667969 21.082031 41.066406 C 21.082031 41.464844 20.949219 41.785156 20.683594 42.050781 C 20.417969 42.316406 20.101562 42.433594 19.699219 42.433594 C 19.316406 42.433594 18.984375 42.300781 18.714844 42.050781 C 18.464844 41.800781 18.332031 41.464844 18.332031 41.082031 Z M 23.648438 38.25 C 23.648438 37.867188 23.785156 37.515625 24.066406 37.214844 C 24.332031 36.949219 24.648438 36.816406 25.015625 36.816406 C 25.398438 36.816406 25.734375 36.964844 26.015625 37.25 C 26.300781 37.535156 26.449219 37.867188 26.449219 38.25 C 26.449219 38.632812 26.316406 38.964844 26.035156 39.25 C 25.75 39.535156 25.417969 39.667969 25.015625 39.667969 C 24.632812 39.667969 24.316406 39.535156 24.050781 39.25 C 23.785156 38.964844 23.648438 38.632812 23.648438 38.25 Z M 23.648438 32.214844 C 23.648438 31.832031 23.785156 31.5 24.066406 31.214844 C 24.367188 30.949219 24.683594 30.816406 25.015625 30.816406 C 25.417969 30.816406 25.75 30.949219 26.035156 31.234375 C 26.316406 31.515625 26.449219 31.832031 26.449219 32.234375 C 26.449219 32.617188 26.316406 32.949219 26.035156 33.214844 C 25.75 33.484375 25.417969 33.617188 25.015625 33.617188 C 24.632812 33.617188 24.316406 33.484375 24.050781 33.214844 C 23.785156 32.933594 23.648438 32.601562 23.648438 32.214844 Z M 23.648438 44.351562 C 23.648438 43.964844 23.785156 43.632812 24.066406 43.332031 C 24.332031 43.066406 24.648438 42.933594 25.015625 42.933594 C 25.417969 42.933594 25.75 43.066406 26.035156 43.351562 C 26.316406 43.632812 26.449219 43.964844 26.449219 44.351562 C 26.449219 44.734375 26.316406 45.066406 26.035156 45.332031 C 25.75 45.601562 25.417969 45.734375 25.015625 45.734375 C 24.632812 45.734375 24.316406 45.601562 24.050781 45.332031 C 23.785156 45.050781 23.648438 44.734375 23.648438 44.351562 Z M 29.015625 35.035156 C 29.015625 34.667969 29.148438 34.351562 29.433594 34.066406 C 29.714844 33.785156 30.050781 33.648438 30.433594 33.648438 C 30.816406 33.648438 31.148438 33.785156 31.417969 34.050781 C 31.683594 34.316406 31.816406 34.648438 31.816406 35.015625 C 31.816406 35.417969 31.683594 35.75 31.417969 36.015625 C 31.148438 36.300781 30.832031 36.433594 30.433594 36.433594 C 30.035156 36.433594 29.699219 36.300781 29.433594 36.015625 C 29.167969 35.75 29.015625 35.417969 29.015625 35.035156 Z M 29.015625 41.082031 C 29.015625 40.714844 29.148438 40.382812 29.433594 40.082031 C 29.699219 39.832031 30.035156 39.699219 30.433594 39.699219 C 30.832031 39.699219 31.148438 39.832031 31.417969 40.082031 C 31.683594 40.332031 31.800781 40.667969 31.800781 41.066406 C 31.800781 41.464844 31.667969 41.785156 31.417969 42.050781 C 31.148438 42.316406 30.832031 42.433594 30.433594 42.433594 C 30.035156 42.433594 29.699219 42.300781 29.433594 42.035156 C 29.167969 41.785156 29.015625 41.464844 29.015625 41.082031 Z M 29.015625 41.082031 "/>
</g>
</svg>
