<?xml version="1.0" encoding="UTF-8"?>
<svg xmlns="http://www.w3.org/2000/svg" xmlns:xlink="http://www.w3.org/1999/xlink" width="50pt" height="50pt" viewBox="0 0 50 50" version="1.1">
<g id="surface1">
<path style=" stroke:none;fill-rule:nonzero;fill:rgb(0%,0%,0%);fill-opacity:1;" d="M 6.882812 25.316406 C 6.882812 26.464844 7.484375 27.449219 8.683594 28.265625 C 10.882812 29.816406 14.199219 30.582031 18.648438 30.582031 C 20.648438 30.582031 22.5 30.417969 24.214844 30.066406 C 26.015625 29.683594 27.5 29.066406 28.632812 28.234375 C 29.765625 27.398438 30.351562 26.433594 30.351562 25.300781 C 30.351562 24.949219 30.285156 24.617188 30.148438 24.265625 C 32.464844 23.699219 34.285156 22.933594 35.601562 21.964844 C 36.917969 21 37.582031 19.882812 37.582031 18.632812 C 37.582031 18.316406 37.535156 17.984375 37.433594 17.632812 C 41.25 16.285156 43.148438 14.464844 43.148438 12.167969 C 43.148438 10.699219 42.316406 9.398438 40.667969 8.265625 C 37.417969 6.101562 32.648438 5.015625 26.367188 5.015625 C 23.398438 5.015625 20.714844 5.285156 18.316406 5.800781 C 15.699219 6.332031 13.601562 7.167969 12 8.300781 C 10.398438 9.433594 9.601562 10.734375 9.601562 12.183594 C 9.601562 13.050781 9.867188 13.832031 10.398438 14.550781 C 8.433594 15.667969 7.449219 17.035156 7.449219 18.648438 C 7.449219 19.898438 8.066406 21 9.285156 21.949219 C 7.683594 22.882812 6.882812 24 6.882812 25.316406 Z M 7.882812 32.816406 C 7.882812 34.035156 8.632812 35 10.132812 35.683594 C 11.632812 36.367188 13.535156 36.714844 15.816406 36.714844 C 18.132812 36.714844 20.035156 36.367188 21.550781 35.683594 C 23.066406 35 23.816406 34.035156 23.816406 32.816406 C 23.816406 32.367188 23.667969 31.984375 23.382812 31.667969 C 23.101562 31.351562 22.714844 31.199219 22.265625 31.199219 C 21.898438 31.199219 21.566406 31.332031 21.265625 31.582031 C 20.964844 31.832031 20.785156 32.167969 20.699219 32.535156 C 20.367188 32.800781 19.765625 33.035156 18.867188 33.25 C 17.964844 33.464844 16.949219 33.582031 15.816406 33.582031 C 13.984375 33.582031 12.484375 33.316406 11.351562 32.800781 C 11.617188 32.535156 11.75 32.199219 11.785156 31.800781 C 11.816406 31.398438 11.714844 31.050781 11.535156 30.765625 C 11.265625 30.417969 10.933594 30.183594 10.515625 30.101562 C 10.101562 30.015625 9.714844 30.101562 9.351562 30.316406 C 8.367188 31 7.882812 31.816406 7.882812 32.816406 Z M 10.015625 25.316406 C 10.015625 25.300781 10.117188 25.199219 10.332031 25.015625 C 10.484375 24.867188 10.800781 24.683594 11.265625 24.449219 C 11.734375 24.214844 12.285156 24.035156 12.867188 23.867188 L 13.066406 23.765625 C 15.765625 24.667969 18.917969 25.117188 22.515625 25.117188 C 24.101562 25.117188 25.535156 25.035156 26.816406 24.851562 L 27.25 25.234375 C 27.101562 25.5 26.75 25.765625 26.199219 26.066406 C 25.535156 26.417969 24.5 26.75 23.101562 27.015625 C 21.699219 27.285156 20.214844 27.433594 18.648438 27.433594 C 17.082031 27.433594 15.601562 27.300781 14.199219 27.015625 C 12.800781 26.734375 11.75 26.417969 11.066406 26.066406 C 10.5 25.832031 10.148438 25.582031 10.015625 25.316406 Z M 10.199219 39.351562 C 10.199219 40.398438 10.800781 41.214844 12 41.785156 C 13.199219 42.351562 14.683594 42.632812 16.449219 42.632812 C 18.25 42.632812 19.765625 42.351562 20.984375 41.785156 C 22.199219 41.214844 22.816406 40.398438 22.816406 39.351562 C 22.816406 38.933594 22.667969 38.550781 22.351562 38.234375 C 22.035156 37.917969 21.667969 37.75 21.25 37.75 C 20.464844 37.75 19.949219 38.148438 19.714844 38.949219 C 19.066406 39.351562 17.984375 39.566406 16.449219 39.566406 C 15.117188 39.566406 14.050781 39.367188 13.25 38.949219 C 13 38.148438 12.5 37.75 11.714844 37.75 C 11.300781 37.75 10.933594 37.898438 10.648438 38.214844 C 10.367188 38.535156 10.199219 38.898438 10.199219 39.351562 Z M 10.550781 18.648438 C 10.550781 18.515625 10.632812 18.367188 10.800781 18.183594 C 11.199219 17.683594 12 17.183594 13.167969 16.714844 C 16.367188 18.433594 20.765625 19.285156 26.351562 19.285156 C 29.199219 19.285156 31.882812 19.015625 34.382812 18.5 L 34.382812 18.648438 C 34.382812 18.898438 34.234375 19.148438 33.917969 19.398438 C 33.234375 20 31.964844 20.566406 30.101562 21.117188 C 28.082031 21.714844 25.550781 22.015625 22.5 22.015625 C 19.433594 22.015625 16.898438 21.714844 14.882812 21.117188 C 12.949219 20.582031 11.667969 20.015625 11.015625 19.417969 C 10.699219 19.167969 10.550781 18.917969 10.550781 18.648438 Z M 12.714844 12.183594 C 12.714844 11.882812 12.917969 11.566406 13.300781 11.199219 C 14.050781 10.5 15.550781 9.832031 17.765625 9.183594 C 20.148438 8.484375 23 8.132812 26.332031 8.132812 C 29.683594 8.132812 32.566406 8.484375 34.984375 9.183594 C 37.234375 9.832031 38.714844 10.515625 39.449219 11.214844 C 39.816406 11.582031 40.015625 11.917969 40.015625 12.199219 C 40.015625 12.484375 39.832031 12.785156 39.449219 13.132812 C 38.714844 13.832031 37.234375 14.515625 34.984375 15.183594 C 32.566406 15.882812 29.699219 16.234375 26.332031 16.234375 C 23 16.234375 20.132812 15.882812 17.765625 15.183594 C 15.535156 14.515625 14.035156 13.832031 13.300781 13.117188 C 12.917969 12.765625 12.714844 12.464844 12.714844 12.183594 Z M 12.714844 12.183594 "/>
</g>
</svg>
